# xmcd
#
# Track frame offsets:
# 150
# 11827
# 31747
# 45032
# 64037
# 78935
# 93852
# 108227
# 120905
# 132925
#
# Disc length: 2055 seconds
#
#
# Revision: 0
# Processed by: cddbd v1.4PL0 Copyright (c) Steve Scherf et al.
# Submitted via: FreeRIP 2.30 
#
DISCID=6608050a
DTITLE=Barbara Fairchild - Color My World
DYEAR=2003
DGENRE=Country
TTITLE0=Color My World
TTITLE1=Mississippi
TTITLE2=Zing Went The Strings Of My Heart
TTITLE3=I Swear
TTITLE4=Heart Broke
TTITLE5=Where Did We Go Right
TTITLE6=Secret Love
TTITLE7=Smile
TTITLE8=Timeless And True Love
TTITLE9=Vincent
EXTD=
EXTT0=
EXTT1=
EXTT2=
EXTT3=
EXTT4=
EXTT5=
EXTT6=
EXTT7=
EXTT8=
EXTT9=
PLAYORDER=
